<?xml version="1.0" encoding="UTF-8"?><svg id="Layer_2" xmlns="http://www.w3.org/2000/svg" viewBox="0 0 805.97 291.6"><defs><style>.cls-1{fill:#fff;}.cls-2{fill:#f26642;}</style></defs><path class="cls-2" d="M141.81,165.18h3.44c4.32,0,7.82,3.5,7.82,7.82v4.85h-19.08v-4.85c0-4.32,3.5-7.82,7.82-7.82Z"/><path class="cls-2" d="M184.68,159.88c-18.7-14.22-46.48-30.79-82.87-30.79-43.9,0-93.7,31.97-93.7,76.46s54.07,91.69,205.45,85.5l.02-1.55c-101.19-4.98-165.94-41.18-165.94-82.43s43.81-53.63,70.72-53.63,48.2,10.12,55.71,14.54c1.25-2.65,5.38-7.73,10.61-8.1Z"/><rect class="cls-2" x="239.56" y="38.77" width="19.52" height="18.19" rx="4.21" ry="4.21"/><rect class="cls-2" x="284.83" y="18.64" width="10.19" height="8.91" rx="3.32" ry="3.32"/><rect class="cls-2" x="304.94" y="41.03" width="12.47" height="11.81" rx="3.32" ry="3.32"/><rect class="cls-2" x="340.52" y="66.15" width="14.76" height="13.65" rx="3.04" ry="3.04"/><rect class="cls-2" x="386.27" y="15.91" width="14.76" height="13.65" rx="3.04" ry="3.04"/><rect class="cls-2" x="333.45" y="16.5" width="9.75" height="9.31" rx="2.88" ry="2.88"/><rect class="cls-2" x="397.24" width="9.75" height="9.31" rx="2.88" ry="2.88"/><rect class="cls-2" x="352.9" y="38.11" width="8.5" height="7.15" rx="3.1" ry="3.1"/><path class="cls-1" d="M133.87,180.75v37.32c0,19.25,10.41,32.9,30.55,32.9,13.65,0,20.33-5.3,24.95-12.77,6.19,9.92,14.93,12.87,24.75,12.87,16.8,0,30.94-9.43,30.94-30.35v-21.51c0-11.98,9.63-15.91,16.4-15.91s16.8,2.95,16.8,16.21v35.65h19.35v-39.68c0-14.54-10.9-30.55-35.65-30.55s-36.24,15.91-36.24,33v20.63c0,10.12-6.58,13.95-12.57,13.95s-13.95-1.87-13.95-16.4v-40.66c0-5.32-4.31-9.63-9.63-9.63h0c-5.32,0-9.63,4.31-9.63,9.63v41.35c0,13.55-6.53,15.71-13.26,15.71-7.56,0-13.65-3.04-13.65-15.62v-36.14h-19.15Z"/><path class="cls-1" d="M286.39,237.91h3.44c4.32,0,7.82,3.5,7.82,7.82v4.85h-19.08v-4.85c0-4.32,3.5-7.82,7.82-7.82Z" transform="translate(576.22 488.49) rotate(180)"/><path class="cls-1" d="M127.78,248.71c16.88,16.95,71.11,39.09,133.58,39.09s127.29-27.7,127.29-64.43c0-23.18-21.8-36.14-29.86-42.43,1.18-46.56-25.14-73.66-65.61-81.13v-23.57c0-6.19-5.63-8.05-7.86-8.05h-27.99c-2.22,0-5.01-.79-8.94,4.22l-.69-.2s-23.47-32.12-73.57-32.12-76.32,26.96-91.64,40.37c-2.85,3.83-5.7,4.52-9.53,6.09C37.42,99.18,0,143.23,0,159.58c23.13-29.02,57.02-48.03,100.92-48.03,66,0,113.74,50.09,122.72,66.3l3.68-4.71c-30.79-61.29-75.73-77.05-105.19-87.81,5.01-6.48,25.19-19.15,52.01-19.15,20.04,0,60.11,9.72,75.43,50.83,76.46-3.68,79.12,37.86,81.77,64.82,5.45,11.49,21.8,21.07,21.8,44.05,0,34.33-58.93,45.52-99.59,45.52s-91.93-8.69-125.77-22.69Z"/><rect class="cls-1" x="267.06" y="32.88" width="30.55" height="29.32" rx="6.04" ry="6.04"/><rect class="cls-1" x="324.07" y="32.22" width="23.7" height="21.24" rx="3.36" ry="3.36"/><rect class="cls-1" x="300.35" y="9.55" width="22.96" height="21.51" rx="4.09" ry="4.09"/><rect class="cls-1" x="348.58" y="3.07" width="30.15" height="27.99" rx="5.28" ry="5.28"/><rect class="cls-1" x="298.98" y="62.59" width="37.52" height="36.16" rx="6.04" ry="6.04"/><path class="cls-1" d="M330.65,32.22h-2.65c-2.14,0-3.88,1.74-3.88,3.88v.81c-.94-3.07-3.59-5.38-6.85-5.84,3.34-.03,6.04-2.74,6.04-6.08v-1.08c0,4.28,3.2,7.8,7.34,8.32Z"/><path class="cls-1" d="M341.26,32.24h2.65c2.14,0,3.88,1.74,3.88,3.88v.81c.94-3.07,3.59-5.38,6.85-5.84-3.34-.03-6.04-2.74-6.04-6.08v-1.08c0,4.28-3.2,7.8-7.34,8.32Z"/><path class="cls-1" d="M291.35,32.88l.54,2.33c2.14,0,1.73.78,1.73,2.93l3.98.71c1.62-4.34,5.38-7.78,8.76-7.78-3.34-.03-6.04-2.74-6.04-6.08v-1.08c0,4.28-4.46,9.13-8.97,8.99Z"/><path class="cls-1" d="M297.6,53.63l-2.56.53c0,2.14-.78,1.73-2.93,1.73l-1.61,6.31c5.55-.2,8.2,4.1,8.47,8.5.03-3.34,2.97-7.89,6.31-7.89l1.07-.2c-4.28,0-9.08-4.25-8.76-8.97Z"/><path class="cls-1" d="M432.91,180.3l6.77-37h14.1l-12.52,59.01h-14.75l-7.9-33.64-7.74,33.64h-14.71l-12.56-59.01h14.14l6.77,37,8.11-37h12.08l8.23,37Z"/><path class="cls-1" d="M479.93,203.12c-6.73,0-12.17-2.01-16.33-6.02-4.16-4.01-6.24-9.23-6.24-15.66v-1.13c0-4.49.83-8.44,2.49-11.88,1.66-3.43,4.09-6.08,7.27-7.96,3.19-1.88,6.97-2.82,11.35-2.82,6.16,0,11.02,1.91,14.59,5.73,3.57,3.82,5.35,9.15,5.35,15.99v5.31h-27.15c.49,2.46,1.55,4.39,3.2,5.79,1.65,1.41,3.78,2.11,6.4,2.11,4.32,0,7.7-1.51,10.13-4.54l6.24,7.38c-1.7,2.35-4.11,4.22-7.23,5.61-3.12,1.39-6.48,2.09-10.07,2.09ZM478.39,168.18c-4,0-6.38,2.65-7.13,7.94h13.78v-1.05c.05-2.19-.5-3.88-1.66-5.09-1.16-1.2-2.82-1.8-4.98-1.8Z"/><path class="cls-1" d="M544.61,180.75c0,7.19-1.49,12.71-4.46,16.58-2.97,3.86-7.16,5.79-12.56,5.79-4.46,0-8.05-1.77-10.78-5.31l-.57,4.5h-12.24v-62.25h13.66v21.93c2.54-2.89,5.82-4.34,9.85-4.34,5.46,0,9.67,1.96,12.64,5.88,2.97,3.92,4.46,9.43,4.46,16.54v.69ZM530.91,179.88c0-4.21-.56-7.21-1.68-9-1.12-1.79-2.84-2.69-5.17-2.69-3.08,0-5.21,1.17-6.4,3.52v17.4c1.16,2.32,3.32,3.48,6.48,3.48s5.25-1.56,6.12-4.69c.43-1.54.65-4.21.65-8.01Z"/><path class="cls-1" d="M563.17,158.46l.45,5.15c3.03-3.97,7.2-5.96,12.52-5.96,4.57,0,7.98,1.36,10.23,4.09,2.25,2.73,3.42,6.84,3.5,12.32v28.25h-13.7v-27.68c0-2.22-.45-3.84-1.34-4.88s-2.51-1.56-4.86-1.56c-2.67,0-4.66,1.05-5.96,3.16v30.96h-13.66v-43.85h12.81Z"/><path class="cls-1" d="M618.65,203.12c-6.73,0-12.17-2.01-16.33-6.02-4.16-4.01-6.24-9.23-6.24-15.66v-1.13c0-4.49.83-8.44,2.49-11.88,1.66-3.43,4.09-6.08,7.27-7.96,3.19-1.88,6.97-2.82,11.35-2.82,6.16,0,11.02,1.91,14.59,5.73,3.57,3.82,5.35,9.15,5.35,15.99v5.31h-27.15c.49,2.46,1.55,4.39,3.2,5.79,1.65,1.41,3.78,2.11,6.4,2.11,4.32,0,7.7-1.51,10.13-4.54l6.24,7.38c-1.7,2.35-4.11,4.22-7.23,5.61-3.12,1.39-6.48,2.09-10.07,2.09ZM617.11,168.18c-4,0-6.38,2.65-7.13,7.94h13.78v-1.05c.05-2.19-.5-3.88-1.66-5.09-1.16-1.2-2.82-1.8-4.98-1.8Z"/><path class="cls-1" d="M665.58,189.99c0-1.16-.61-2.09-1.82-2.8-1.22-.7-3.53-1.43-6.93-2.19-3.4-.76-6.21-1.75-8.43-2.98-2.22-1.23-3.91-2.72-5.07-4.48-1.16-1.76-1.74-3.77-1.74-6.04,0-4.03,1.66-7.34,4.98-9.95s7.67-3.91,13.05-3.91c5.78,0,10.43,1.31,13.94,3.93,3.51,2.62,5.27,6.07,5.27,10.33h-13.7c0-3.51-1.85-5.27-5.55-5.27-1.43,0-2.63.4-3.61,1.2-.97.8-1.46,1.79-1.46,2.98s.59,2.2,1.78,2.96c1.19.76,3.09,1.38,5.69,1.86,2.61.49,4.9,1.07,6.87,1.74,6.59,2.27,9.89,6.34,9.89,12.2,0,4-1.78,7.25-5.33,9.77-3.55,2.51-8.15,3.77-13.8,3.77-3.76,0-7.11-.68-10.05-2.03-2.95-1.35-5.24-3.19-6.89-5.51-1.65-2.32-2.47-4.77-2.47-7.33h12.77c.05,2.03.73,3.5,2.03,4.44,1.3.93,2.96,1.4,4.98,1.4,1.87,0,3.26-.38,4.2-1.13.93-.76,1.4-1.74,1.4-2.96Z"/><path class="cls-1" d="M701.04,147.56v10.9h7.21v9.48h-7.21v20.06c0,1.65.3,2.8.89,3.45.59.65,1.77.97,3.53.97,1.35,0,2.49-.08,3.4-.24v9.77c-2.46.78-5.03,1.18-7.7,1.18-4.7,0-8.17-1.11-10.42-3.32-2.24-2.21-3.36-5.58-3.36-10.09v-21.76h-5.59v-9.48h5.59v-10.9h13.66Z"/><path class="cls-1" d="M713.52,147.15c0-1.95.7-3.54,2.11-4.78,1.4-1.24,3.23-1.86,5.47-1.86s4.07.62,5.47,1.86c1.4,1.24,2.11,2.84,2.11,4.78s-.7,3.54-2.11,4.78c-1.41,1.24-3.23,1.86-5.47,1.86s-4.07-.62-5.47-1.86c-1.41-1.24-2.11-2.84-2.11-4.78ZM728.03,202.31h-13.7v-43.85h13.7v43.85Z"/><path class="cls-1" d="M739.46,202.31v-34.37h-6.36v-9.48h6.36v-3.49c0-5,1.47-8.88,4.42-11.63,2.94-2.76,7.08-4.13,12.4-4.13,1.95,0,4.08.28,6.4.85l.04,10.05c-.84-.24-1.96-.37-3.36-.37-4.13,0-6.2,1.78-6.2,5.35v3.36h8.55v9.48h-8.55v34.37h-13.7Z"/><path class="cls-1" d="M784.04,183.18l7.29-24.72h14.63l-17.87,51.19-.77,1.86c-2.54,5.67-7.03,8.51-13.46,8.51-1.78,0-3.66-.27-5.63-.81v-9.73h1.78c1.92,0,3.38-.28,4.4-.83,1.01-.55,1.76-1.55,2.25-2.98l1.09-2.92-15.24-44.29h14.59l6.93,24.72Z"/></svg>